<svg xmlns="http://www.w3.org/2000/svg" viewBox="0 0 100 100">
  <circle cx="50" cy="50" r="50" fill="#0a1a10"/>
  <g transform="translate(23.5, 20) scale(0.114)" fill="#a8e063">
    <path d="M341.91,0c-46.66,0-87.41,25.74-108.78,63.78-.02.03-.06.03-.08,0C211.68,25.74,170.93,0,124.27,0H.04s-.04.02-.04.04v124.27c0,68.86,55.82,124.68,124.68,124.68h92.46s.04.02.04.04v29.06s-.02.04-.04.04h-108.49s-.04.02-.04.04v125.42c0,69.69,58,126.07,128.29,123.42,67.63-2.55,120.69-59.11,120.69-126.78v-122.06s-.02-.04-.04-.04h-108.49s-.04-.02-.04-.04v-29.06s.02-.04.04-.04h92.46c68.85,0,124.66-55.81,124.66-124.66V.05s-.02-.04-.04-.04h-124.23ZM325.73,309.96s.04.02.04.04v91.67c0,51.63-42,93.63-93.63,93.63s-91.72-41.13-91.72-91.7v-93.6s.02-.04.04-.04h185.27ZM124.69,217.19c-51.29,0-92.86-41.58-92.86-92.86V31.87s.02-.04.04-.04h92.37c51.33,0,92.95,41.61,92.95,92.95v92.37s-.02.04-.04.04h-92.46ZM434.35,124.34c0,51.28-41.57,92.84-92.84,92.84h-92.46s-.04-.02-.04-.04v-92.37c0-51.33,41.61-92.95,92.95-92.95h92.35s.04.02.04.04v92.48Z"/>
  </g>
</svg>
